<svg xmlns="http://www.w3.org/2000/svg" xmlns:xlink="http://www.w3.org/1999/xlink" width="38" height="38" viewBox="0 0 38 38">
  <defs>
    <clipPath id="clip-Web_1920_1">
      <rect width="38" height="38"/>
    </clipPath>
  </defs>
  <g id="Web_1920_1" data-name="Web 1920 – 1" clip-path="url(#clip-Web_1920_1)">
    <g id="shopping-cart-svgrepo-com_1_" data-name="shopping-cart-svgrepo-com (1)" transform="translate(4 3)">
      <path id="Path_11" data-name="Path 11" d="M25.893,21.728H43.977A3.741,3.741,0,0,0,47.7,17.984V10.253a.086.086,0,0,0-.007-.041c0-.014-.007-.034-.007-.047s-.007-.027-.007-.041a.436.436,0,0,1-.014-.047c-.007-.014-.007-.027-.013-.041s-.007-.027-.013-.041a.331.331,0,0,1-.02-.047.148.148,0,0,0-.02-.034l-.02-.041c-.007-.014-.013-.02-.02-.034s-.02-.027-.027-.041a.119.119,0,0,0-.027-.034c-.007-.014-.02-.02-.027-.034s-.02-.02-.027-.034-.02-.02-.027-.027l-.034-.034c-.013-.007-.02-.02-.034-.027s-.027-.02-.04-.027-.02-.014-.034-.02a.141.141,0,0,1-.04-.027l-.04-.02-.04-.02-.04-.02c-.013-.007-.027-.007-.04-.014a.124.124,0,0,0-.047-.014A.291.291,0,0,1,47,9.439a.148.148,0,0,0-.054-.007c-.007,0-.013-.007-.027-.007L24,6.244V3.03a.419.419,0,0,0-.007-.095.051.051,0,0,0-.007-.027c0-.02-.007-.041-.007-.061s-.007-.034-.013-.054-.007-.02-.007-.034l-.02-.061c0-.007-.007-.02-.007-.027a.2.2,0,0,0-.027-.054c-.007-.007-.007-.02-.013-.027a.142.142,0,0,0-.027-.041c-.007-.014-.013-.02-.02-.034s-.013-.02-.02-.034-.02-.027-.027-.041l-.02-.02-.04-.041-.02-.02a.294.294,0,0,0-.047-.041c-.007-.007-.02-.014-.027-.02s-.027-.02-.04-.034a.622.622,0,0,0-.054-.034c-.007-.007-.013-.007-.02-.014-.027-.014-.061-.027-.088-.041L18.466.073a.908.908,0,0,0-1.194.488.916.916,0,0,0,.486,1.2l4.411,1.872V23.7a3.741,3.741,0,0,0,3.244,3.71,3.681,3.681,0,1,0,6.826,1.9,3.641,3.641,0,0,0-.506-1.865h8.189a3.67,3.67,0,1,0,3.17-1.831h-17.2a1.91,1.91,0,0,1-1.9-1.913V21.213A3.75,3.75,0,0,0,25.893,21.728ZM30.426,29.3a1.855,1.855,0,1,1-1.855-1.865A1.863,1.863,0,0,1,30.426,29.3Zm14.529,0A1.855,1.855,0,1,1,43.1,27.432,1.863,1.863,0,0,1,44.955,29.3Zm-.978-9.4H25.893a1.91,1.91,0,0,1-1.9-1.913v-9.9l21.888,3.032v6.857A1.911,1.911,0,0,1,43.977,19.9Z" transform="translate(-17.2 0)" fill="#2c2c2c"/>
    </g>
  </g>
</svg>
