<svg xmlns="http://www.w3.org/2000/svg" xmlns:xlink="http://www.w3.org/1999/xlink" width="20" height="15" viewBox="0 0 20 15">
  <defs>
    <clipPath id="clip-Web_1920_1">
      <rect width="20" height="15"/>
    </clipPath>
  </defs>
  <g id="Web_1920_1" data-name="Web 1920 – 1" clip-path="url(#clip-Web_1920_1)">
    <path id="_125-email" data-name="125-email" d="M18.049.5H1.951A1.959,1.959,0,0,0,0,2.462V13.538A1.959,1.959,0,0,0,1.951,15.5h16.1A1.959,1.959,0,0,0,20,13.538V2.462A1.959,1.959,0,0,0,18.049.5Zm-16.1.981h16.1a.97.97,0,0,1,.691.289l-8.3,5.447a.969.969,0,0,1-1.081-.008L1.286,1.745A.969.969,0,0,1,1.951,1.481ZM19.024,13.538a.979.979,0,0,1-.976.981H1.951a.979.979,0,0,1-.976-.981V2.717L8.812,8.023a1.938,1.938,0,0,0,2.16.016l8.052-5.284Zm0,0" transform="translate(0 -0.5)" fill="#2c2c2c"/>
  </g>
</svg>
