<svg xmlns="http://www.w3.org/2000/svg" xmlns:xlink="http://www.w3.org/1999/xlink" width="60" height="60" viewBox="0 0 60 60">
  <defs>
    <clipPath id="clip-path">
      <rect id="Rectangle_70" data-name="Rectangle 70" width="60" height="60"/>
    </clipPath>
  </defs>
  <g id="Background" clip-path="url(#clip-path)">
    <g id="Tick" transform="translate(0.002 0.002)">
      <g id="Group_7171" data-name="Group 7171" transform="translate(-0.002 -0.002)">
        <g id="Artboard_16" clip-path="url(#clip-path)">
          <g id="Group_9238">
            <g id="Group_8788">
              <circle id="Ellipse_180" cx="30" cy="30" r="30" fill="#46b143"/>
              <g id="tick-2" data-name="tick" transform="translate(16.101 20.096)">
                <g id="Group_8787" transform="translate(0 0)">
                  <path id="Path_1880" d="M29.524.325a1.817,1.817,0,0,0-2,0h0l-18,18-7.2-6.8a1.817,1.817,0,0,0-2,0,1.817,1.817,0,0,0,0,2l8,8a1.817,1.817,0,0,0,2,0h0l19.2-19.2c.8-.4.8-1.2,0-2Z" transform="translate(-0.025 -0.025)" fill="#fff"/>
                  <path id="Path_1880_-_Outline" data-name="Path_1880 - Outline" d="M28.524-.225A1.707,1.707,0,0,1,29.7.148a1.819,1.819,0,0,1,.659,1.507,1.2,1.2,0,0,1-.687.874L10.5,21.7a1.707,1.707,0,0,1-1.177.373A1.707,1.707,0,0,1,8.148,21.7l-8-8a1.707,1.707,0,0,1-.373-1.177,1.707,1.707,0,0,1,.373-1.177,1.707,1.707,0,0,1,1.177-.373,1.712,1.712,0,0,1,1.174.371L9.52,17.976,27.347.148A1.707,1.707,0,0,1,28.524-.225Zm-19.2,21.8a1.289,1.289,0,0,0,.823-.227L29.375,2.119l.036-.018a.74.74,0,0,0,.454-.526A1.36,1.36,0,0,0,29.347.5,1.607,1.607,0,0,0,27.7.5L9.53,18.673,2.148,11.7a1.289,1.289,0,0,0-.823-.227A1.289,1.289,0,0,0,.5,11.7a1.618,1.618,0,0,0,0,1.646l8,8A1.289,1.289,0,0,0,9.325,21.574Z" transform="translate(-0.025 -0.025)" fill="#fff"/>
                </g>
              </g>
            </g>
          </g>
        </g>
      </g>
    </g>
  </g>
</svg>
