<svg xmlns="http://www.w3.org/2000/svg" xmlns:xlink="http://www.w3.org/1999/xlink" width="20" height="15" viewBox="0 0 20 15">
  <defs>
    <clipPath id="clip-Web_1920_1">
      <rect width="20" height="15"/>
    </clipPath>
  </defs>
  <g id="Web_1920_1" data-name="Web 1920 – 1" clip-path="url(#clip-Web_1920_1)">
    <g id="phone-call-svgrepo-com" transform="translate(0.311 0.082)">
      <g id="Group_69" data-name="Group 69" transform="translate(0 0.229)">
        <path id="Path_21" data-name="Path 21" d="M14.055,11.6l-2.22-2.226a1.156,1.156,0,0,0-1.632.031L9.084,10.527,8.863,10.4a11.133,11.133,0,0,1-2.691-1.95,11.216,11.216,0,0,1-1.95-2.7c-.042-.075-.081-.147-.12-.216l.751-.751.369-.37a1.161,1.161,0,0,0,.03-1.636L3.031.552A1.155,1.155,0,0,0,1.4.583l-.626.631.017.017a3.624,3.624,0,0,0-.516.912,3.785,3.785,0,0,0-.23.925C-.248,5.5.863,7.729,3.877,10.751c4.167,4.176,7.525,3.86,7.669,3.845a3.738,3.738,0,0,0,.925-.233,3.6,3.6,0,0,0,.906-.514l.014.012.634-.622A1.163,1.163,0,0,0,14.055,11.6Zm-.523,1.142-.279.28-.111.107a2.792,2.792,0,0,1-.921.582,3.087,3.087,0,0,1-.752.189c-.032,0-3.19.273-7.1-3.644C1.046,6.926.514,5.007.737,3.148a3.083,3.083,0,0,1,.188-.753,2.837,2.837,0,0,1,.581-.926l.386-.391a.458.458,0,0,1,.647-.031l2.22,2.225a.463.463,0,0,1-.03.649l-1.5,1.5.138.233c.077.13.158.276.245.434A11.792,11.792,0,0,0,5.68,8.948a11.763,11.763,0,0,0,2.845,2.068c.16.089.307.171.438.249L9.2,11.4l1.5-1.5a.461.461,0,0,1,.648-.03l2.219,2.225A.462.462,0,0,1,13.532,12.743Z" transform="translate(0 -0.229)" fill="#2c2c2c" stroke="#2c2c2c" stroke-width="0.3"/>
      </g>
    </g>
  </g>
</svg>
