<svg xmlns="http://www.w3.org/2000/svg" xmlns:xlink="http://www.w3.org/1999/xlink" width="38" height="38" viewBox="0 0 38 38">
  <defs>
    <clipPath id="clip-Web_1920_1">
      <rect width="38" height="38"/>
    </clipPath>
  </defs>
  <g id="Web_1920_1" data-name="Web 1920 – 1" clip-path="url(#clip-Web_1920_1)">
    <g id="_173-user" data-name="173-user" transform="translate(3 3)">
      <path id="Path_17" data-name="Path 17" d="M16.649,0A16.522,16.522,0,1,0,28.308,4.828,16.487,16.487,0,0,0,16.649,0ZM7.737,28.6V27.168a8.913,8.913,0,0,1,17.825,0V28.6A15.008,15.008,0,0,1,7.737,28.6Zm19.272-1.212v-.214a10.359,10.359,0,0,0-20.718,0v.214a15.041,15.041,0,1,1,20.718,0Zm0,0" transform="translate(-0.161 0.001)" fill="#2c2c2c"/>
      <path id="Path_17_-_Outline" data-name="Path 17 - Outline" d="M16.675,33.1h0A16.6,16.6,0,1,1,16.649-.1h.045A16.48,16.48,0,0,1,28.379,4.758,16.588,16.588,0,0,1,16.675,33.1Zm.019-33H16.65a16.4,16.4,0,0,0,.024,32.8h0a16.388,16.388,0,0,0,11.562-28A16.28,16.28,0,0,0,16.694.1Zm-.045,31.529a15.006,15.006,0,0,1-8.972-2.952l-.041-.03V27.168a9.013,9.013,0,0,1,18.025,0v1.477l-.041.03A15.006,15.006,0,0,1,16.649,31.628ZM7.837,28.545a14.908,14.908,0,0,0,17.625,0V27.168a8.813,8.813,0,0,0-17.625,0ZM6.39,27.615l-.169-.16A15.138,15.138,0,1,1,31.791,16.487a15.1,15.1,0,0,1-4.682,10.939v.057h-.351l.151-.143v-.171a10.259,10.259,0,0,0-20.518,0ZM16.649,1.546A14.931,14.931,0,0,0,6.19,27.148a10.459,10.459,0,0,1,20.918,0,14.935,14.935,0,0,0-10.459-25.6Z" transform="translate(-0.161 0.001)" fill="#2c2c2c"/>
      <path id="Path_18" data-name="Path 18" d="M156.862,67.148a5.55,5.55,0,1,0,5.55,5.55A5.55,5.55,0,0,0,156.862,67.148Zm0,9.664a4.114,4.114,0,1,1,4.114-4.114A4.114,4.114,0,0,1,156.862,76.813Zm0,0" transform="translate(-140.342 -63.328)" fill="#2c2c2c"/>
      <path id="Path_18_-_Outline" data-name="Path 18 - Outline" d="M156.862,78.348a5.65,5.65,0,1,1,5.65-5.65A5.656,5.656,0,0,1,156.862,78.348Zm0-11.1a5.45,5.45,0,1,0,5.45,5.45A5.456,5.456,0,0,0,156.862,67.248Zm0,9.664a4.214,4.214,0,1,1,4.214-4.214A4.219,4.219,0,0,1,156.863,76.912Zm0-8.228a4.014,4.014,0,1,0,4.014,4.014A4.019,4.019,0,0,0,156.862,68.684Z" transform="translate(-140.342 -63.328)" fill="#2c2c2c"/>
    </g>
  </g>
</svg>
