<svg xmlns="http://www.w3.org/2000/svg" xmlns:xlink="http://www.w3.org/1999/xlink" width="38" height="38" viewBox="0 0 38 38">
  <defs>
    <clipPath id="clip-Web_1920_1">
      <rect width="38" height="38"/>
    </clipPath>
  </defs>
  <g id="Web_1920_1" data-name="Web 1920 – 1" clip-path="url(#clip-Web_1920_1)">
    <g id="heart-svgrepo-com_2_" data-name="heart-svgrepo-com (2)" transform="translate(1 3)">
      <g id="Group_9" data-name="Group 9">
        <path id="Path_12" data-name="Path 12" d="M16.334,58.5a2.373,2.373,0,0,0,1.681.7,2.4,2.4,0,0,0,1.681-.7L32.887,45.314a10.6,10.6,0,0,0-14.88-15.1A10.6,10.6,0,0,0,3.113,45.292ZM4.383,31.574a8.8,8.8,0,0,1,12.45.007l.543.543a.9.9,0,0,0,.639.264h0a.913.913,0,0,0,.639-.264l.529-.528a8.8,8.8,0,1,1,12.443,12.44l-13.2,13.2a.609.609,0,0,1-.822,0L4.39,44.022a8.8,8.8,0,0,1-.007-12.448Z" transform="translate(0 -27.2)" fill="#2c2c2c"/>
      </g>
    </g>
  </g>
</svg>
